<svg width="188" height="64" viewBox="0 0 188 64" fill="none" xmlns="http://www.w3.org/2000/svg">
<g clip-path="url(#clip0)">
<path fill-rule="evenodd" clip-rule="evenodd" d="M34.3644 64C27.2416 64 20.7755 61.1233 16.0162 56.4461C20.42 59.7858 25.8728 61.7622 31.7766 61.7622C46.3961 61.7622 58.2521 49.6476 58.2521 34.7092C58.2521 27.0491 55.134 20.1322 50.1252 15.2098C56.6258 20.1399 60.8399 28.0409 60.8399 36.9466C60.8399 51.8853 48.9839 64 34.3644 64Z" fill="#0F5EE7"/>
<path fill-rule="evenodd" clip-rule="evenodd" d="M33.6356 0C40.7584 0 47.2245 2.87669 51.9838 7.55363C47.58 4.21387 42.1272 2.23746 36.2233 2.23746C21.6039 2.23746 9.7479 14.3521 9.7479 29.2905C9.7479 36.9506 12.866 43.8674 17.8748 48.7896C11.3742 43.8598 7.16011 35.9588 7.16011 27.053C7.16011 12.1146 19.0161 0 33.6356 0Z" fill="#0F5EE7"/>
<path fill-rule="evenodd" clip-rule="evenodd" d="M26.4754 57.2615C33.5983 57.2615 40.0647 54.3845 44.8237 49.7075C40.4199 53.0473 34.9674 55.0237 29.0632 55.0237C14.4438 55.0237 2.58779 42.9091 2.58779 27.9707C2.58779 20.3106 5.70587 13.3937 10.715 8.47125C4.21412 13.4016 0 21.3027 0 30.2084C0 45.1468 11.856 57.2615 26.4754 57.2615Z" fill="#61BA66"/>
<path fill-rule="evenodd" clip-rule="evenodd" d="M41.5246 6.73883C34.4017 6.73883 27.9353 9.61552 23.1763 14.2925C27.5801 10.9527 33.0329 8.97629 38.9371 8.97629C53.5565 8.97629 65.4125 21.0909 65.4125 36.0293C65.4125 43.6894 62.2944 50.6063 57.2853 55.5287C63.7862 50.5987 68.0003 42.6979 68.0003 33.7922C68 18.8532 56.144 6.73883 41.5246 6.73883Z" fill="#61BA66"/>
<path fill-rule="evenodd" clip-rule="evenodd" d="M29.8073 19.8703H38.1924C39.0374 19.8703 39.7291 20.5767 39.7291 21.4405V26.146H44.3342C45.1792 26.146 45.8709 26.8525 45.8709 27.716V36.284C45.8709 37.1474 45.1792 37.8542 44.3342 37.8542H39.7291V42.5597C39.7291 43.4232 39.0374 44.13 38.1924 44.13H29.8073C28.9623 44.13 28.2709 43.4232 28.2709 42.5597V37.8542H23.6658C22.8208 37.8542 22.1291 37.1474 22.1291 36.284V27.716C22.1291 26.8525 22.8205 26.146 23.6658 26.146H28.2709V21.4405C28.2709 20.577 28.9623 19.8703 29.8073 19.8703Z" fill="#61BA66"/>
</g>
<path d="M84.2734 27H87.3691L88.4336 23.582H93.4141L94.4785 27H97.5742L92.6621 12.9082H89.1953L84.2734 27ZM90.8945 15.6426H90.9531L92.7305 21.375H89.1172L90.8945 15.6426ZM98.7754 27H101.627V20.6816C101.627 19.5 102.359 18.6797 103.443 18.6797C104.498 18.6797 105.133 19.3438 105.133 20.4668V27H107.877V20.6328C107.877 19.4707 108.59 18.6797 109.674 18.6797C110.777 18.6797 111.383 19.3438 111.383 20.5547V27H114.234V19.8418C114.234 17.7324 112.857 16.3164 110.807 16.3164C109.273 16.3164 108.023 17.1562 107.555 18.4746H107.496C107.145 17.0977 106.08 16.3164 104.615 16.3164C103.209 16.3164 102.115 17.0977 101.686 18.2891H101.627V16.5312H98.7754V27ZM122.242 27.2148C124.879 27.2148 126.51 25.1641 126.51 21.7656V21.7559C126.51 18.3477 124.879 16.3164 122.252 16.3164C120.758 16.3164 119.596 17.0781 119.02 18.3477H118.961V12.9082H116.109V27H118.961V25.2129H119.02C119.586 26.4531 120.738 27.2148 122.242 27.2148ZM121.295 24.8516C119.908 24.8516 118.961 23.6602 118.961 21.7656V21.7559C118.961 19.8711 119.918 18.6797 121.295 18.6797C122.711 18.6797 123.609 19.8418 123.609 21.7559V21.7656C123.609 23.6699 122.711 24.8516 121.295 24.8516ZM131.539 27.2148C133.121 27.2148 134.195 26.4727 134.732 25.2715H134.791V27H137.643V16.5312H134.791V22.5469C134.791 23.9141 133.98 24.8516 132.701 24.8516C131.422 24.8516 130.777 24.0605 130.777 22.6934V16.5312H127.926V23.2891C127.926 25.7402 129.234 27.2148 131.539 27.2148ZM139.566 27H142.418V12.9082H139.566V27ZM147.457 27.166C148.834 27.166 149.947 26.5117 150.543 25.4375H150.602V27H153.453V19.8223C153.453 17.7129 151.705 16.3164 149 16.3164C146.236 16.3164 144.576 17.7031 144.42 19.6367L144.41 19.7539H147.018L147.037 19.666C147.174 18.9922 147.818 18.4941 148.883 18.4941C149.996 18.4941 150.602 19.0703 150.602 19.998V20.6426L148.014 20.7988C145.416 20.9648 143.941 22.0781 143.941 23.9824V24.002C143.941 25.8477 145.357 27.166 147.457 27.166ZM146.764 23.8555V23.8359C146.764 23.0938 147.34 22.625 148.443 22.5566L150.602 22.4199V23.1719C150.602 24.2656 149.664 25.0859 148.385 25.0859C147.398 25.0859 146.764 24.627 146.764 23.8555ZM155.299 27H158.15V20.9844C158.15 19.6172 158.961 18.6797 160.24 18.6797C161.52 18.6797 162.164 19.4609 162.164 20.8281V27H165.016V20.2422C165.016 17.791 163.707 16.3164 161.402 16.3164C159.82 16.3164 158.746 17.0488 158.209 18.25H158.15V16.5312H155.299V27ZM171.607 27.2148C174.4 27.2148 176.207 25.4766 176.344 23.1914V23.1328H173.688L173.678 23.2207C173.482 24.2754 172.77 24.9785 171.627 24.9785C170.221 24.9785 169.342 23.8164 169.342 21.7656V21.7559C169.342 19.7539 170.221 18.5527 171.617 18.5527C172.799 18.5527 173.492 19.3145 173.668 20.3105L173.688 20.3984H176.334V20.3301C176.227 18.0645 174.42 16.3164 171.578 16.3164C168.443 16.3164 166.441 18.3965 166.441 21.7461V21.7559C166.441 25.1348 168.414 27.2148 171.607 27.2148ZM182.486 27.2148C185.475 27.2148 186.92 25.4473 187.242 23.9043L187.271 23.7969H184.654L184.635 23.8555C184.43 24.4414 183.717 25.0859 182.545 25.0859C181.09 25.0859 180.182 24.1094 180.152 22.4395H187.359V21.5605C187.359 18.3965 185.436 16.3164 182.369 16.3164C179.303 16.3164 177.34 18.4453 177.34 21.7754V21.7852C177.34 25.1348 179.283 27.2148 182.486 27.2148ZM182.418 18.4453C183.6 18.4453 184.449 19.1973 184.625 20.6426H180.182C180.367 19.2266 181.246 18.4453 182.418 18.4453ZM90.3184 51.2441C93.873 51.2441 96.002 49.5254 96.002 46.8203V46.8105C96.002 44.5938 94.6738 43.3926 91.7246 42.8066L90.2305 42.5039C88.6094 42.1816 87.8867 41.6641 87.8867 40.7754V40.7656C87.8867 39.7598 88.7949 39.0664 90.3086 39.0566C91.7637 39.0566 92.7793 39.7305 92.9258 40.834L92.9355 40.9512H95.7188L95.709 40.7656C95.5723 38.2949 93.5703 36.6641 90.3086 36.6641C87.1836 36.6641 84.9375 38.3633 84.9375 40.9414V40.9512C84.9375 43.0703 86.3438 44.3984 89.127 44.9551L90.6113 45.248C92.3594 45.6094 93.0527 46.0879 93.0527 47.0449V47.0547C93.0527 48.1289 92.0273 48.8418 90.3965 48.8418C88.7852 48.8418 87.623 48.1582 87.4375 47.0645L87.418 46.957H84.6348L84.6445 47.1133C84.8105 49.7109 86.9688 51.2441 90.3184 51.2441ZM102.33 51.2148C105.318 51.2148 106.764 49.4473 107.086 47.9043L107.115 47.7969H104.498L104.479 47.8555C104.273 48.4414 103.561 49.0859 102.389 49.0859C100.934 49.0859 100.025 48.1094 99.9961 46.4395H107.203V45.5605C107.203 42.3965 105.279 40.3164 102.213 40.3164C99.1465 40.3164 97.1836 42.4453 97.1836 45.7754V45.7852C97.1836 49.1348 99.127 51.2148 102.33 51.2148ZM102.262 42.4453C103.443 42.4453 104.293 43.1973 104.469 44.6426H100.025C100.211 43.2266 101.09 42.4453 102.262 42.4453ZM108.678 51H111.529V45.1406C111.529 43.6172 112.35 42.7773 113.756 42.7773C114.166 42.7773 114.557 42.8359 114.791 42.9336V40.4238C114.576 40.3652 114.283 40.3164 113.971 40.3164C112.75 40.3164 111.9 41.0684 111.588 42.3574H111.529V40.5312H108.678V51ZM118.727 51H121.939L125.533 40.5312H122.555L120.396 48.4805H120.338L118.15 40.5312H115.104L118.727 51ZM128.014 39.1836C128.873 39.1836 129.537 38.5098 129.537 37.6992C129.537 36.8887 128.873 36.2148 128.014 36.2148C127.154 36.2148 126.49 36.8887 126.49 37.6992C126.49 38.5098 127.154 39.1836 128.014 39.1836ZM126.588 51H129.439V40.5312H126.588V51ZM136.139 51.2148C138.932 51.2148 140.738 49.4766 140.875 47.1914V47.1328H138.219L138.209 47.2207C138.014 48.2754 137.301 48.9785 136.158 48.9785C134.752 48.9785 133.873 47.8164 133.873 45.7656V45.7559C133.873 43.7539 134.752 42.5527 136.148 42.5527C137.33 42.5527 138.023 43.3145 138.199 44.3105L138.219 44.3984H140.865V44.3301C140.758 42.0645 138.951 40.3164 136.109 40.3164C132.975 40.3164 130.973 42.3965 130.973 45.7461V45.7559C130.973 49.1348 132.945 51.2148 136.139 51.2148ZM147.018 51.2148C150.006 51.2148 151.451 49.4473 151.773 47.9043L151.803 47.7969H149.186L149.166 47.8555C148.961 48.4414 148.248 49.0859 147.076 49.0859C145.621 49.0859 144.713 48.1094 144.684 46.4395H151.891V45.5605C151.891 42.3965 149.967 40.3164 146.9 40.3164C143.834 40.3164 141.871 42.4453 141.871 45.7754V45.7852C141.871 49.1348 143.814 51.2148 147.018 51.2148ZM146.949 42.4453C148.131 42.4453 148.98 43.1973 149.156 44.6426H144.713C144.898 43.2266 145.777 42.4453 146.949 42.4453Z" fill="#2E3131"/>
<defs>
<clipPath id="clip0">
<rect width="68" height="64" fill="white"/>
</clipPath>
</defs>
</svg>
